<svg width="134" height="134" viewBox="0 0 134 134" fill="none" xmlns="http://www.w3.org/2000/svg">
<path d="M38 35H84.2221C97.1036 49.397 94.8304 62.026 84.2221 73.8972H48.8609L43.8093 88.0417" stroke="black" stroke-width="12.1238"/>
<path fill-rule="evenodd" clip-rule="evenodd" d="M89.2736 70.3612V88.2943L94.1684 85.8969L94.9238 88.2943L98.3665 86.5263L97.1821 84.4208L101.65 82.2324L89.2736 70.3612Z" fill="#F36565"/>
<path d="M22.129 110.85V104.122H24.1659V105.357H24.2403C24.3805 104.948 24.6171 104.625 24.95 104.389C25.2829 104.152 25.68 104.034 26.1415 104.034C26.6087 104.034 27.0088 104.154 27.3417 104.393C27.6746 104.633 27.8863 104.954 27.9769 105.357H28.047C28.1725 104.957 28.4178 104.637 28.7829 104.398C29.1479 104.155 29.5786 104.034 30.0751 104.034C30.7117 104.034 31.2286 104.238 31.6258 104.647C32.0229 105.053 32.2215 105.611 32.2215 106.321V110.85H30.0795V106.811C30.0795 106.475 29.9933 106.22 29.821 106.045C29.6487 105.867 29.4253 105.777 29.1508 105.777C28.8559 105.777 28.6237 105.874 28.4543 106.067C28.2879 106.256 28.2046 106.512 28.2046 106.833V110.85H26.1458V106.789C26.1458 106.477 26.0611 106.23 25.8918 106.049C25.7224 105.868 25.499 105.777 25.2216 105.777C25.0347 105.777 24.8697 105.823 24.7266 105.913C24.5835 106.001 24.471 106.126 24.3893 106.29C24.3104 106.453 24.271 106.646 24.271 106.868V110.85H22.129ZM33.5488 110.85V104.122H35.6908V110.85H33.5488ZM34.622 103.338C34.3212 103.338 34.0628 103.238 33.8467 103.04C33.6306 102.838 33.5225 102.596 33.5225 102.313C33.5225 102.032 33.6306 101.793 33.8467 101.594C34.0628 101.393 34.3212 101.292 34.622 101.292C34.9257 101.292 35.1842 101.393 35.3973 101.594C35.6134 101.793 35.7215 102.032 35.7215 102.313C35.7215 102.596 35.6134 102.838 35.3973 103.04C35.1842 103.238 34.9257 103.338 34.622 103.338ZM39.1963 107.013V110.85H37.0542V104.122H39.0912V105.357H39.1656C39.3146 104.945 39.5686 104.622 39.9278 104.389C40.287 104.152 40.7148 104.034 41.2113 104.034C41.6844 104.034 42.0947 104.141 42.4422 104.354C42.7926 104.564 43.0642 104.859 43.257 105.239C43.4526 105.615 43.549 106.056 43.5461 106.562V110.85H41.404V106.982C41.407 106.608 41.312 106.316 41.1193 106.106C40.9295 105.896 40.6652 105.791 40.3264 105.791C40.1016 105.791 39.903 105.84 39.7307 105.94C39.5613 106.036 39.4299 106.175 39.3365 106.356C39.2459 106.537 39.1992 106.756 39.1963 107.013ZM50.177 110.85V112.418H44.1889V110.85H50.177ZM51.4134 113.373V104.122H53.5335V105.274H53.5992C53.6868 105.069 53.8109 104.872 53.9715 104.682C54.1351 104.493 54.3424 104.338 54.5936 104.218C54.8476 104.095 55.1513 104.034 55.5047 104.034C55.9719 104.034 56.4085 104.157 56.8145 104.402C57.2233 104.647 57.5533 105.025 57.8044 105.537C58.0556 106.048 58.1812 106.699 58.1812 107.49C58.1812 108.252 58.06 108.89 57.8176 109.404C57.5781 109.918 57.254 110.304 56.8451 110.561C56.4392 110.818 55.988 110.946 55.4916 110.946C55.1528 110.946 54.8593 110.891 54.6111 110.78C54.3629 110.669 54.1541 110.523 53.9847 110.342C53.8182 110.161 53.6897 109.967 53.5992 109.759H53.5554V113.373H51.4134ZM53.5116 107.486C53.5116 107.848 53.5598 108.163 53.6561 108.432C53.7554 108.701 53.8971 108.909 54.0811 109.058C54.2679 109.204 54.4914 109.277 54.7513 109.277C55.0141 109.277 55.2375 109.204 55.4215 109.058C55.6054 108.909 55.7442 108.701 55.8376 108.432C55.934 108.163 55.9822 107.848 55.9822 107.486C55.9822 107.124 55.934 106.81 55.8376 106.544C55.7442 106.278 55.6054 106.072 55.4215 105.926C55.2404 105.78 55.017 105.707 54.7513 105.707C54.4884 105.707 54.265 105.779 54.0811 105.922C53.8971 106.065 53.7554 106.27 53.6561 106.535C53.5598 106.801 53.5116 107.118 53.5116 107.486ZM61.2004 110.964C60.7711 110.964 60.39 110.892 60.0571 110.749C59.7271 110.603 59.4657 110.384 59.273 110.092C59.0832 109.797 58.9882 109.428 58.9882 108.984C58.9882 108.61 59.054 108.295 59.1854 108.038C59.3168 107.781 59.4978 107.572 59.7285 107.411C59.9592 107.251 60.225 107.13 60.5258 107.048C60.8266 106.963 61.1478 106.906 61.4895 106.877C61.872 106.842 62.1801 106.805 62.4138 106.767C62.6474 106.727 62.8168 106.67 62.9219 106.597C63.0299 106.521 63.084 106.414 63.084 106.277V106.255C63.084 106.03 63.0066 105.856 62.8518 105.734C62.697 105.611 62.4882 105.55 62.2254 105.55C61.9421 105.55 61.7143 105.611 61.5421 105.734C61.3698 105.856 61.2602 106.026 61.2135 106.242L59.2379 106.172C59.2963 105.763 59.4467 105.398 59.6891 105.077C59.9344 104.752 60.2703 104.498 60.6966 104.314C61.1259 104.127 61.6413 104.034 62.2429 104.034C62.6722 104.034 63.0679 104.085 63.43 104.187C63.7921 104.287 64.1075 104.433 64.3762 104.625C64.6449 104.815 64.8522 105.049 64.9982 105.326C65.1472 105.604 65.2216 105.921 65.2216 106.277V110.85H63.2066V109.913H63.1541C63.0343 110.14 62.881 110.333 62.6941 110.491C62.5101 110.649 62.2926 110.767 62.0414 110.846C61.7932 110.924 61.5128 110.964 61.2004 110.964ZM61.8618 109.562C62.0925 109.562 62.2999 109.515 62.4838 109.422C62.6707 109.329 62.8197 109.2 62.9307 109.037C63.0416 108.87 63.0971 108.677 63.0971 108.458V107.819C63.0358 107.851 62.9613 107.88 62.8737 107.906C62.789 107.933 62.6956 107.957 62.5934 107.981C62.4911 108.004 62.386 108.025 62.278 108.042C62.1699 108.06 62.0662 108.076 61.967 108.09C61.7655 108.122 61.5932 108.172 61.4501 108.239C61.3099 108.306 61.2018 108.394 61.1259 108.502C61.0529 108.607 61.0164 108.733 61.0164 108.879C61.0164 109.101 61.0952 109.27 61.2529 109.387C61.4136 109.504 61.6165 109.562 61.8618 109.562ZM70.3292 104.122V105.699H66.0846V104.122H70.3292ZM66.9738 102.51H69.1158V108.734C69.1158 108.866 69.1363 108.972 69.1772 109.054C69.221 109.133 69.2838 109.19 69.3655 109.225C69.4473 109.257 69.5451 109.273 69.659 109.273C69.7408 109.273 69.8269 109.266 69.9175 109.251C70.0109 109.234 70.081 109.219 70.1277 109.207L70.4519 110.754C70.3497 110.783 70.2051 110.819 70.0182 110.863C69.8342 110.907 69.6138 110.935 69.3568 110.946C68.8545 110.97 68.4237 110.911 68.0645 110.771C67.7083 110.628 67.4352 110.406 67.2454 110.105C67.0585 109.805 66.968 109.426 66.9738 108.971V102.51ZM73.7087 107.013V110.85H71.5667V101.879H73.6387V105.357H73.7131C73.865 104.942 74.1132 104.618 74.4578 104.384C74.8053 104.151 75.2302 104.034 75.7325 104.034C76.2056 104.034 76.6174 104.139 76.9678 104.349C77.3182 104.557 77.5898 104.85 77.7826 105.23C77.9782 105.61 78.0746 106.053 78.0717 106.562V110.85H75.9296V106.982C75.9326 106.608 75.8391 106.316 75.6493 106.106C75.4595 105.896 75.1923 105.791 74.8477 105.791C74.6228 105.791 74.4242 105.84 74.2519 105.94C74.0825 106.036 73.9497 106.175 73.8533 106.356C73.7599 106.537 73.7117 106.756 73.7087 107.013ZM84.7135 110.85V112.418H78.7255V110.85H84.7135ZM88.5289 110.977C87.8251 110.977 87.2177 110.838 86.7066 110.561C86.1985 110.281 85.8072 109.882 85.5327 109.365C85.2611 108.845 85.1253 108.228 85.1253 107.512C85.1253 106.817 85.2625 106.21 85.5371 105.69C85.8116 105.167 86.1985 104.761 86.6979 104.472C87.1972 104.18 87.7857 104.034 88.4632 104.034C88.9421 104.034 89.3802 104.108 89.7773 104.257C90.1745 104.406 90.5176 104.627 90.8067 104.919C91.0958 105.211 91.3207 105.572 91.4813 106.001C91.6419 106.427 91.7222 106.916 91.7222 107.468V108.003H85.8743V106.759H89.7291C89.7262 106.531 89.6722 106.328 89.5671 106.15C89.4619 105.972 89.3174 105.833 89.1334 105.734C88.9523 105.631 88.7435 105.58 88.507 105.58C88.2675 105.58 88.0529 105.634 87.8631 105.742C87.6732 105.848 87.5229 105.992 87.4119 106.176C87.3009 106.357 87.2425 106.563 87.2367 106.794V108.06C87.2367 108.334 87.2907 108.575 87.3987 108.782C87.5068 108.987 87.6601 109.146 87.8587 109.26C88.0573 109.374 88.2938 109.431 88.5683 109.431C88.7581 109.431 88.9304 109.404 89.0852 109.352C89.24 109.299 89.3729 109.222 89.4838 109.12C89.5948 109.018 89.678 108.892 89.7335 108.743L91.7003 108.8C91.6186 109.241 91.439 109.625 91.1615 109.952C90.887 110.276 90.5264 110.529 90.0796 110.71C89.6328 110.888 89.1159 110.977 88.5289 110.977ZM95.2737 110.946C94.7772 110.946 94.3261 110.818 93.9201 110.561C93.5142 110.304 93.1901 109.918 92.9477 109.404C92.7053 108.89 92.5841 108.252 92.5841 107.49C92.5841 106.699 92.7097 106.048 92.9608 105.537C93.212 105.025 93.5405 104.647 93.9464 104.402C94.3553 104.157 94.7948 104.034 95.2649 104.034C95.6183 104.034 95.9205 104.095 96.1717 104.218C96.4228 104.338 96.6302 104.493 96.7937 104.682C96.9572 104.872 97.0814 105.069 97.166 105.274H97.2099V101.879H99.3519V110.85H97.2318V109.759H97.166C97.0755 109.967 96.947 110.161 96.7806 110.342C96.6141 110.523 96.4053 110.669 96.1542 110.78C95.9059 110.891 95.6124 110.946 95.2737 110.946ZM96.0184 109.277C96.2783 109.277 96.5002 109.204 96.6842 109.058C96.8682 108.909 97.0098 108.701 97.1091 108.432C97.2084 108.163 97.258 107.848 97.258 107.486C97.258 107.118 97.2084 106.801 97.1091 106.535C97.0127 106.27 96.8711 106.065 96.6842 105.922C96.5002 105.779 96.2783 105.707 96.0184 105.707C95.7526 105.707 95.5278 105.78 95.3438 105.926C95.1598 106.072 95.0196 106.278 94.9233 106.544C94.8298 106.81 94.7831 107.124 94.7831 107.486C94.7831 107.848 94.8313 108.163 94.9276 108.432C95.024 108.701 95.1627 108.909 95.3438 109.058C95.5278 109.204 95.7526 109.277 96.0184 109.277ZM100.707 110.85V104.122H102.849V110.85H100.707ZM101.78 103.338C101.479 103.338 101.221 103.238 101.004 103.04C100.788 102.838 100.68 102.596 100.68 102.313C100.68 102.032 100.788 101.793 101.004 101.594C101.221 101.393 101.479 101.292 101.78 101.292C102.083 101.292 102.342 101.393 102.555 101.594C102.771 101.793 102.879 102.032 102.879 102.313C102.879 102.596 102.771 102.838 102.555 103.04C102.342 103.238 102.083 103.338 101.78 103.338ZM108.01 104.122V105.699H103.765V104.122H108.01ZM104.654 102.51H106.796V108.734C106.796 108.866 106.817 108.972 106.858 109.054C106.902 109.133 106.964 109.19 107.046 109.225C107.128 109.257 107.226 109.273 107.34 109.273C107.421 109.273 107.508 109.266 107.598 109.251C107.692 109.234 107.762 109.219 107.808 109.207L108.132 110.754C108.03 110.783 107.886 110.819 107.699 110.863C107.515 110.907 107.294 110.935 107.037 110.946C106.535 110.97 106.104 110.911 105.745 110.771C105.389 110.628 105.116 110.406 104.926 110.105C104.739 109.805 104.649 109.426 104.654 108.971V102.51Z" fill="black"/>
</svg>
